<svg t="1752633264772" class="icon" viewBox="0 0 1024 1024" version="1.1" xmlns="http://www.w3.org/2000/svg" p-id="3549" width="48" height="48"><path d="M487.92 226v191.92h48V225.84l100.16 100.16 33.92-33.92-141.04-141.04c-8.96-8.96-24.96-8.96-33.92 0L354 292.08l33.92 33.92 100-100zM536.08 798v-192h-48v192.08L387.92 698l-33.92 33.92 141.04 141.04c4.48 4.48 10.64 7.04 16.96 7.04s12.48-2.56 16.96-7.04l141.04-141.04-33.92-33.92-100 100zM872.96 495.04L731.92 354l-33.92 33.92 100 100h-192v48h192.08L698 636.08l33.92 33.92 141.04-141.04c4.48-4.48 7.04-10.64 7.04-16.96s-2.56-12.48-7.04-16.96zM418 536.08v-48H225.84l100.16-100.16-33.92-33.92-141.04 141.04c-4.48 4.48-7.04 10.64-7.04 16.96s2.56 12.48 7.04 16.96l141.04 141.04 33.92-33.92-100-100h192z" fill="#ffffff" p-id="3550"></path></svg>