<svg t="1752560076601" class="icon" viewBox="0 0 1024 1024" version="1.1" xmlns="http://www.w3.org/2000/svg" p-id="5719" width="48" height="48"><path d="M512 725.333333c-131.712 0-251.818667-61.738667-360.32-185.173333a42.666667 42.666667 0 0 1 0-56.32C260.181333 360.405333 380.288 298.666667 512 298.666667c131.712 0 251.818667 61.738667 360.32 185.173333a42.666667 42.666667 0 0 1 0 56.32C763.818667 663.594667 643.712 725.333333 512 725.333333z m0-362.666666c-107.178667 0-206.250667 48.512-299.52 149.333333 93.269333 100.821333 192.341333 149.333333 299.52 149.333333 107.178667 0 206.250667-48.512 299.52-149.333333-93.269333-100.821333-192.341333-149.333333-299.52-149.333333zM117.333333 117.333333V298.666667a32 32 0 0 1-64 0V85.333333A32 32 0 0 1 85.333333 53.333333h213.333334a32 32 0 0 1 0 64H117.333333z m0 789.333334H298.666667a32 32 0 1 1 0 64H85.333333a32 32 0 0 1-32-32v-213.333334a32 32 0 1 1 64 0v181.333334z m789.333334-789.333334H725.333333a32 32 0 1 1 0-64h213.333334a32 32 0 0 1 32 32v213.333334a32 32 0 1 1-64 0V117.333333z m0 789.333334V725.333333a32 32 0 1 1 64 0v213.333334a32 32 0 0 1-32 32h-213.333334a32 32 0 1 1 0-64h181.333334zM512 597.333333a85.333333 85.333333 0 1 1 0-170.666666 85.333333 85.333333 0 0 1 0 170.666666z" fill="#ffffff" p-id="5720"></path></svg>