<svg t="1755158513488" class="icon" viewBox="0 0 1992 1024" version="1.1" xmlns="http://www.w3.org/2000/svg" p-id="2421" width="48" height="48"><path d="M270.038397 232.384896l69.285159-69.285158a24.744699 24.744699 0 0 1 34.642579 0l71.759628 69.285158a168.263956 168.263956 0 0 0 247.446995 0l71.759628-69.285158a24.744699 24.744699 0 0 1 34.64258 0l71.759628 69.285158a168.263956 168.263956 0 0 0 247.446995 0L1190.541217 163.099738a24.744699 24.744699 0 0 1 34.642579 0l71.759629 69.285158a168.263956 168.263956 0 0 0 247.446994 0l71.759629-69.285158a24.744699 24.744699 0 0 1 34.642579 0l71.759629 69.285158a170.738426 170.738426 0 0 0 247.446994 0L1868.545982 130.931628a24.744699 24.744699 0 0 1-34.642579 0L1762.143775 59.172a170.738426 170.738426 0 0 0-247.446995 0l-69.285158 71.759628a24.744699 24.744699 0 0 1-34.64258 0L1339.009414 59.172a168.263956 168.263956 0 0 0-247.446995 0l-71.759628 71.759628a24.744699 24.744699 0 0 1-34.642579 0L913.400583 59.172a168.263956 168.263956 0 0 0-247.446995 0l-71.759628 71.759628a24.744699 24.744699 0 0 1-34.642579 0L477.893873 54.22306a168.263956 168.263956 0 0 0-247.446995 0L158.687249 125.982688a24.744699 24.744699 0 0 1-34.642579 0l-103.927738 101.453268a173.212896 173.212896 0 0 0 247.446995 0zM1804.209764 499.62765l-71.759629-71.759628a175.687366 175.687366 0 0 0-247.446994 0l-69.285159 71.759628a24.744699 24.744699 0 0 1-34.642579 0l-71.759629-71.759628a173.212896 173.212896 0 0 0-247.446994 0l-71.759629 71.759628a24.744699 24.744699 0 0 1-34.642579 0l-71.759628-71.759628a173.212896 173.212896 0 0 0-247.446995 0l-71.759628 71.759628a24.744699 24.744699 0 0 1-34.64258 0l-71.759628-71.759628a173.212896 173.212896 0 0 0-247.446995 0l-71.759628 71.759628a24.744699 24.744699 0 0 1-34.642579 0l-103.927738 103.927738a175.687366 175.687366 0 0 0 247.446995 0l69.285158-71.759628a24.744699 24.744699 0 0 1 34.642579 0l71.759629 71.759628a170.738426 170.738426 0 0 0 247.446994 0l71.759629-71.759628a24.744699 24.744699 0 0 1 34.642579 0l71.759628 71.759628a173.212896 173.212896 0 0 0 247.446995 0l71.759629-71.759628a24.744699 24.744699 0 0 1 34.642579 0l71.759628 71.759628a173.212896 173.212896 0 0 0 247.446995 0l71.759628-71.759628a24.744699 24.744699 0 0 1 34.64258 0l71.759628 71.759628a173.212896 173.212896 0 0 0 247.446995 0l-101.453268-103.927738a24.744699 24.744699 0 0 1-42.065989 0zM1804.209764 870.798142l-71.759629-71.759628a170.738426 170.738426 0 0 0-247.446994 0l-69.285159 71.759628a29.693639 29.693639 0 0 1-34.642579 0l-71.759629-71.759628a168.263956 168.263956 0 0 0-247.446994 0l-71.759629 71.759628a29.693639 29.693639 0 0 1-34.642579 0l-71.759628-71.759628a168.263956 168.263956 0 0 0-247.446995 0l-71.759628 71.759628a29.693639 29.693639 0 0 1-34.64258 0l-51.963868-74.234098a170.738426 170.738426 0 0 0-247.446995 0l-71.759629 71.759628a29.693639 29.693639 0 0 1-34.642579 0l-103.927738 101.453268a170.738426 170.738426 0 0 0 247.446995 0l69.285159-71.759628a29.693639 29.693639 0 0 1 34.642579 0l71.759628 71.759628a170.738426 170.738426 0 0 0 247.446995 0l71.759628-71.759628h17.32129a27.219169 27.219169 0 0 1 17.32129 0l71.759628 71.759628a168.263956 168.263956 0 0 0 247.446995 0l71.759628-71.759628a29.693639 29.693639 0 0 1 34.642579 0l71.759629 71.759628a168.263956 168.263956 0 0 0 247.446994 0l71.759629-71.759628a29.693639 29.693639 0 0 1 34.642579 0l71.759629 71.759628a168.263956 168.263956 0 0 0 247.446994 0l-101.453268-101.453268a30.930874 30.930874 0 0 1-61.861748 2.47447z" fill="#ffffff" p-id="2422"></path></svg>