<svg width="31" height="31" viewBox="0 0 31 31" fill="none" xmlns="http://www.w3.org/2000/svg">
<g id="liebiao">
<g id="liebiao_2">
<g filter="url(#filter0_i_7_2117)">
<rect x="15" width="18.3848" height="18.3848" transform="rotate(45 15 0)" fill="#3B9FF3"/>
</g>
<rect x="15" y="0.707107" width="17.3848" height="17.3848" transform="rotate(45 15 0.707107)" stroke="#C7E4FC"/>
</g>
<g id="Vector" filter="url(#filter1_d_7_2117)">
<path d="M13.0523 16.9992C12.8547 16.9902 12.6681 16.9016 12.5313 16.7519C12.3945 16.6023 12.3182 16.4031 12.3182 16.1959C12.3182 15.9887 12.3945 15.7895 12.5313 15.6398C12.6681 15.4901 12.8547 15.4015 13.0523 15.3925H20.1988C20.3024 15.3878 20.4058 15.405 20.5027 15.4433C20.5997 15.4815 20.6883 15.5399 20.7632 15.615C20.838 15.69 20.8976 15.7802 20.9383 15.88C20.979 15.9799 21 16.0873 21 16.1959C21 16.3044 20.979 16.4118 20.9383 16.5117C20.8976 16.6115 20.838 16.7017 20.7632 16.7767C20.6883 16.8518 20.5997 16.9102 20.5027 16.9485C20.4058 16.9867 20.3024 17.004 20.1988 16.9992H13.0523ZM10 16.1951C10.0012 16.0376 10.0469 15.884 10.1313 15.7536C10.2157 15.6232 10.3351 15.5219 10.4743 15.4625C10.6136 15.4031 10.7665 15.3882 10.9139 15.4197C11.0612 15.4512 11.1964 15.5277 11.3023 15.6395C11.4082 15.7513 11.4801 15.8935 11.509 16.0481C11.5379 16.2027 11.5225 16.3628 11.4647 16.5082C11.4069 16.6536 11.3092 16.7778 11.1841 16.8652C11.059 16.9526 10.912 16.9992 10.7616 16.9992C10.6612 16.9989 10.5618 16.9778 10.4692 16.9372C10.3765 16.8966 10.2924 16.8372 10.2217 16.7625C10.151 16.6879 10.095 16.5993 10.0569 16.5019C10.0189 16.4046 9.99955 16.3003 10 16.1951ZM13.0523 13.3027C12.8543 13.2942 12.6671 13.2059 12.5299 13.0561C12.3927 12.9064 12.316 12.7068 12.316 12.4992C12.316 12.2916 12.3927 12.0921 12.5299 11.9423C12.6671 11.7926 12.8543 11.7042 13.0523 11.6958H20.1988C20.3022 11.6913 20.4054 11.7089 20.5021 11.7472C20.5988 11.7856 20.6872 11.8441 20.7618 11.9191C20.8364 11.9942 20.8958 12.0843 20.9364 12.1839C20.9769 12.2836 20.9978 12.3909 20.9978 12.4992C20.9978 12.6076 20.9769 12.7148 20.9364 12.8145C20.8958 12.9142 20.8364 13.0043 20.7618 13.0793C20.6872 13.1544 20.5988 13.2128 20.5021 13.2512C20.4054 13.2896 20.3022 13.3071 20.1988 13.3027H13.0523ZM10 12.4999C10.0012 12.3424 10.0469 12.1888 10.1313 12.0584C10.2157 11.928 10.3351 11.8268 10.4743 11.7673C10.6136 11.7079 10.7665 11.693 10.9139 11.7245C11.0612 11.756 11.1964 11.8325 11.3023 11.9443C11.4082 12.0561 11.4801 12.1983 11.509 12.3529C11.5379 12.5075 11.5225 12.6676 11.4647 12.813C11.4069 12.9584 11.3092 13.0826 11.1841 13.17C11.059 13.2574 10.912 13.304 10.7616 13.304C10.6612 13.3037 10.5618 13.2826 10.4692 13.2419C10.3766 13.2013 10.2925 13.142 10.2218 13.0673C10.151 12.9926 10.095 12.9041 10.057 12.8067C10.0189 12.7094 9.99958 12.6051 10 12.4999ZM13.0523 9.60751C12.8547 9.59846 12.6681 9.50987 12.5313 9.3602C12.3945 9.21053 12.3182 9.01133 12.3182 8.80414C12.3182 8.59694 12.3945 8.39774 12.5313 8.24807C12.6681 8.0984 12.8547 8.00981 13.0523 8.00077H20.1988C20.3024 7.99603 20.4058 8.0133 20.5027 8.05154C20.5997 8.08977 20.6883 8.14819 20.7632 8.22325C20.838 8.29832 20.8976 8.38849 20.9383 8.48832C20.979 8.58815 21 8.69558 21 8.80414C21 8.91269 20.979 9.02012 20.9383 9.11995C20.8976 9.21979 20.838 9.30995 20.7632 9.38502C20.6883 9.46008 20.5997 9.5185 20.5027 9.55673C20.4058 9.59497 20.3024 9.61224 20.1988 9.60751H13.0523ZM10 8.80471C10.0012 8.64719 10.0469 8.49357 10.1313 8.3632C10.2157 8.23283 10.3351 8.13156 10.4743 8.07214C10.6136 8.01273 10.7665 7.99783 10.9139 8.02932C11.0612 8.06081 11.1964 8.13729 11.3023 8.24912C11.4082 8.36094 11.4801 8.5031 11.509 8.65769C11.5379 8.81228 11.5225 8.97237 11.4647 9.11778C11.4069 9.2632 11.3092 9.38743 11.1841 9.47482C11.059 9.5622 10.912 9.60884 10.7616 9.60885C10.6612 9.60849 10.5618 9.58741 10.4692 9.5468C10.3765 9.50618 10.2924 9.44684 10.2217 9.37215C10.151 9.29747 10.095 9.20891 10.0569 9.11155C10.0189 9.01418 9.99955 8.90991 10 8.80471Z" fill="white"/>
</g>
</g>
<defs>
<filter id="filter0_i_7_2117" x="2" y="0" width="26" height="30.0001" filterUnits="userSpaceOnUse" color-interpolation-filters="sRGB">
<feFlood flood-opacity="0" result="BackgroundImageFix"/>
<feBlend mode="normal" in="SourceGraphic" in2="BackgroundImageFix" result="shape"/>
<feColorMatrix in="SourceAlpha" type="matrix" values="0 0 0 0 0 0 0 0 0 0 0 0 0 0 0 0 0 0 127 0" result="hardAlpha"/>
<feOffset dy="4"/>
<feGaussianBlur stdDeviation="2"/>
<feComposite in2="hardAlpha" operator="arithmetic" k2="-1" k3="1"/>
<feColorMatrix type="matrix" values="0 0 0 0 0 0 0 0 0 0 0 0 0 0 0 0 0 0 0.25 0"/>
<feBlend mode="normal" in2="shape" result="effect1_innerShadow_7_2117"/>
</filter>
<filter id="filter1_d_7_2117" x="0" y="2" width="31" height="29" filterUnits="userSpaceOnUse" color-interpolation-filters="sRGB">
<feFlood flood-opacity="0" result="BackgroundImageFix"/>
<feColorMatrix in="SourceAlpha" type="matrix" values="0 0 0 0 0 0 0 0 0 0 0 0 0 0 0 0 0 0 127 0" result="hardAlpha"/>
<feOffset dy="4"/>
<feGaussianBlur stdDeviation="5"/>
<feComposite in2="hardAlpha" operator="out"/>
<feColorMatrix type="matrix" values="0 0 0 0 0.683333 0 0 0 0 0.642252 0 0 0 0 0.395764 0 0 0 0.4 0"/>
<feBlend mode="normal" in2="BackgroundImageFix" result="effect1_dropShadow_7_2117"/>
<feBlend mode="normal" in="SourceGraphic" in2="effect1_dropShadow_7_2117" result="shape"/>
</filter>
</defs>
</svg>
